<?xml version='1.0' encoding='utf-8'?>
<svg xmlns="http://www.w3.org/2000/svg" viewBox="0 0 841.9 595.3"><path d="m381.8 156.7-.4-11.4-5.7-1-.8-16.5 17.1-4 .9 18.2-5 1.3 1.4 16z" fill="#e5e723"/><path d="m350.6 290 21.2-7.5 11.2 33.1-19 7.2z" fill="#a1dba3"/><path d="m452.4 340 .1 22.5 24.9 2.7 2.1-9.5 9.8.6v-16.3z" fill="#a1dba3"/><path d="m220.9 385.6 10.8-25.1 20.9 5.4-.9 5.9z" fill="#a1dba3"/><path d="m245.5 436.7-7.2 27.2 16.8 2.5 10.4-25.1z" fill="#9dd3cc"/><path d="m608.2 522.9-13.1 17.3 15.3 12.9 11.1-18.2z" fill="#9dd3cc"/><path d="m498.9 370.5-1.5 26.2h9.7l-1.5 6.4 8.6 1.2-.2 2.5 14.7-3.5 5.8-23.3-14.7-1.5 1-7.2z" fill="#9dd3cc"/><path d="m358.7 390.8-.8 6.1 30.8 3.6-.9-6.6z" fill="#9dd3cc"/><path d="m361.3 413.8-.8 8.5 33.2 1.3 1.6-7.1z" fill="#9dd3cc"/><path d="m351.5 469.3 1.6 3.5 27.4.7.3-4.2z" fill="#9dd3cc"/><g fill="#181715"><path d="m459 462.2c-.3-1.6-.4-3.2-.9-4.7-.4-1.3-2.7-4.8-3-5-.1.3.2 5.1.2 6.8v9.8c0 .5 0 1.1.1 1.6.5-.3 3.6-5.9 3.6-8.5zm-9.5-54c0-.1 0-.1 0 0 1.3-.1 2.5-.1 3.8-.1.2 0 .5-.2.7-.3-.2-.2-.3-.6-.5-.6-.8-.2-1.7-.4-2.5-.4-5 0-10 0-15 0-3.1 0-6.2.2-9.2.2-4.9.1-9.8.1-14.7.1-.9 0-1.8 0-2.7 0-.1 0-.1.5 0 .5.9 0 1.7-.1 2.6 0 6.3.3 12.6.7 18.8.8 6.3.1 12.5-.1 18.7-.2zm-80.5-5.5v1c0 1.3 22.5 1.8 27 2.3.7.1 1.2 0 1.4-.7.2-.5.4-.9.6-1.4.2-.7.1-1.3-.8-1.3-.7 0-1.4-.1-2.2-.1-3.3-.2-6.6-.3-9.9-.5-4-.3-14.2-.6-15.3-.8-.8-.1-1 .2-.8.9zm.8 84.7c0-2 0-4.1 0-6.2 0-1.6-2.3-4.6-2.6-4.8-.4-.2-.8-.4-1.2-.6-.2.4-.4.8-.4 1.2-.1 2.3-.1 4.6 0 6.9 0 2.6.1 5.2.2 7.9.1 1.8.3 3.6.3 5.4.1 2.7.3 3.1 3 3.5h.1c1 .1 1.4-.1 1.3-1.1-.1-2.1-.1-4.2-.3-6.4 0-1.8-.2-3.8-.4-5.8zm6.9-13.7s2.5-.1 3.8-.2c1.9-.1 2.1-.3 2-2.2 0-.2 0-.4-.1-.7-.1-1-.6-1.4-1.6-1.4-1.8.1-3.5.1-5.3 0-2.1 0-4.3-.2-6.4-.3-2.7-.1-5.4-.3-8.1-.3-3.2.1-6.3.3-9.5.6-.4 0-.9.5-1 .8-.1.5-.2 1.5.1 1.7.7.5 1.6.9 2.5 1 3.2.3 6.3.4 9.5.6 1.1.1 2.2.3 3.3.3.3 0 .8-.9 1.7-.9s3.3.9 4.9 1.1c1.4.2 2.8 0 4.2-.1zm-15.8-81.1c-3-.2-3.3-1.4-3.5 2.1 0 .5-.1 1 0 1.5 0 .3.3.6.5.7.7.3 1.5.7 2.3.8 2.4.2 4.8.2 7.2.4 1.3.1 2.7.3 4 .6 1.1.2 2.3.6 3.4.7.9.1 1.9.1 2.8.1 3.7.3 7.4.6 11.1.9 1.5.1 1.5 0 1.7-1.4.1-.5.2-1.1.3-1.6.6-3.1.3-3.5-2.9-3.6-3.4-.1-6.8-.3-10.2-.5-5.6-.2-11.1-.5-16.7-.7zm24.4 47.9c0 .1 4.2-.4 6.3-.8.8-.1 1.1-.6.8-1.4-.3-1-.5-1.9-.7-2.9s-.8-1.3-1.8-1.2c-.9.1-10.1-.2-13.7 0-4.6.3-9.1-.1-13.7-.3-1.9-.1-2.5.3-2.9 2.1-.1.8-.1 1.6 0 2.4 0 .9.4 2.1 4 1.8 4.1.1 8.2.1 12.4.1 3.1.3 6.2.2 9.3.2zm13.4 8.5c.6 0 1.4-.1 1.4-.9 0-1.2-.1-2.3-.3-3.5-.1-.7-.6-1.1-1.5-1.1-1 .1-2.1-.1-3.1-.1-2.4 0-4.9-.1-7.3 0-3.6.1-17.9-.3-21.5.1-1 .1-2.2.1-3 .6-.4.3-.2 1.6-.3 2.4 0 .3-.1.6-.1.9 0 .9.7 1.8 1.5 1.8 2.7.1 5.4.3 8 .2 2.8.1 24-.2 26.2-.4zm-35.3 11.5c-.3 0-.9.1-1 .4-.4.7-.6 1.4-.8 2.2-.4 1.5.4 2.7 1.8 3.3 2.5 1 5.1.9 7.6 1 4.3.3 8.6.1 12.9.3 2.7.1 8 .6 8 .6h3.1c1.8 0 1.8 0 1.8-1.9 0-.3.1-.5.2-.8.2-2.3-.7-3.6-2.6-3.5-1.8.1-3.5 0-5.3-.1-2.4-.2-4.8-.6-7.3-.8-2.1-.2-10.7-.2-12.9-.3zm6.2-53.9c-2.2.1-3.5.7-4.1 2.4-.3.7-.3 1.5.5 1.9 1.2.7 2.5 1.1 3.9 1.1 2.4.1 16.6 1.2 21.3 1.2 4.3 0 8.6-.2 12.9-.2 1.2 0 1.6-.6 1.8-1.6.5-2.9-.3-3.8-3.2-3.8-.2 0-.5 0-.7 0-2.5-.1-5.1-.1-7.6-.3-3-.2-6-.6-8.9-.7-5.3 0-10.6.1-15.9 0zm14.2 52.9h3.9c1.5 0 1.9-.4 1.8-1.9 0-1.9-.1-3.7-.2-5.6 0-.8-.4-1.1-1.2-1.1-4.4.1-28.9 1.1-32.8 1.3-2.3.1-2.9.6-3 2.9-.1 1.6.6 2.4 2.2 2.8.5.1 1.1.3 1.6.3 4.3.3 8.5.5 12.8.7 5 .3 14.9.6 14.9.6zm-26.2-34.2c-.9.1-1.7.1-2.6.2-2.2.2-2.2 1.3-2 2.8.1.5.1 1 .4 1.4.3.5.7 1 1.1 1.3.7.4 1.5.6 2.3.7 1.7.2 3.5.4 5.3.5 2.8.2 5.5.4 8.3.5 3.4.1 6.9-.1 10.3-.1h8.8c1.6 0 3.3-.2 4.9-.3 1.8-.2 3.5-.3 5.3-.5.2 0 .6-.3.7-.5.1-1.1.3-2.3.1-3.3-.3-1.5-.7-1.6-2.2-1.6-3.1 0-6.2 0-9.4-.1-5.5-.2-11-.5-16.6-.7-3.2-.1-6.3-.4-9.5-.4-1.8-.3-5.2.1-5.2.1zm33.1-1.3c1-.1 2-.3 2.9-.4 1.6-.1 2.4-.7 2.4-2.3s-.4-3.2-.7-4.8c-.2-.9-.8-1.5-2-1.4s-8.5-.6-10.9-.6c-.1 0-.3 0-.4 0-3.5.1-14.2-.3-14.8-.3-1.9-.1-3.9-.3-5.8-.4-2-.1-2.3.2-2.2 2.2 0 1.5.2 3.1.2 4.6 0 .9.4 1.3 1.2 1.7 1.5.7 3.1.4 4.7.5 2.4.2 4.8.4 7.3.5h.6c2.2.2 16.6.8 17.5.7zm53.7 77c1.9-.1 4.1-.3 6.2-.5.3 0 .8-.4.9-.7.3-1 .5-2.1.5-3.2.2-3.3.2-6.6.4-9.9.1-3 .3-6.1.4-9.1 0-.7-.3-.7-.7-.4-.9.7-1.7 1.3-2.6 2-2.7 2.2-5.7 3.9-9 4.9-4.5 1.4-9.1 2-13.8 2-3.8 0-7.7.2-11.5.2-5.9 0-11.7-.1-17.5-.3-3.7-.1-7.4-.4-11.1-.8-2.5-.3-5-.5-7.3-1.3-2.3-.7-4.3-2.1-6.4-3.3-.8-.5-1-.4-1 .5.1 3.2.2 6.3.3 9.5.1 2.8.6 8.6.6 8.7.1 1 .4 1.6 1.6 1.7 3.8.2 7.6.6 11.4.7 2.8.1 16.4-.3 17.8-.3 4.9 0 9.9-.1 14.8-.1h4.6c3.3 0 6.6-.1 9.9-.2 3.6.1 7.5 0 11.5-.1zm10.8-89.8c0-.7-.1-1.1-1-1.2-1.9-.1-3.9-.3-5.8-.3-3.1 0-6.3.2-9.4.2-5.9 0-11.8-.1-17.7-.2-3.7-.1-7.4-.2-11.2-.2-1.9 0-2.3.5-2.1 2.4.1.7 0 1.4 0 2.2 0 .7-.3 1.1-1.1 1-1.2-.1-2.3-.2-3.5-.2-1.8 0-3.5.1-5.3.1-.6 0-.9.1-.6.8.7 2.3 1 4.7.3 7-.3.9.1 1.3 1 1.3.5 0 1.5-.1 2.4-.1.4 0 1.5.5 1.6 1.3.4 2.4 0 7.4-.3 7.7-.8.6-6.2 1.1-7.9 1.1-1.1 0-1.2.2-.9 1.2.4 1.2.7 2.4 1.1 3.6.3.8.4 2.1.9 2.3 1.1.3 2.4.1 3.6 0 1.8-.1 3 .1 3.1 1.4.1 2.3.2 4.5.3 6.8 0 .7-.2 1.1-.9 1.2-1.4.1-2.7.2-4.1.2-1.7.1-3.4.1-5.2.1-.5 0-.9.1-.9.7 0 2.2-.1 4.3-.1 6.5 0 .8.3 1.9 1.3 1.9 1.3.1 2.7 0 4-.2 1.2-.2 2.1.4 2.2 1.6.1 2.5.2 5 .4 7.4 0 .6-.2.9-.9.9-1.2 0-2.4.1-3.7 0-3.2-.1-6.3-.2-9.5-.4-.8 0-1 .2-.9.9.2 1 .5 2 .6 3v1c0 .5-1.2 1.4-2.5 1.4-2.8-.1-7.5-.3-9.9-.2-.3 0-.7.2-1 .2.2.4.2.9.5 1.2 1 .8 2 1.6 3 2.3 2.5 1.6 5.2 2.7 8.1 3.2 2.8.5 5.6.9 8.5 1.2 3.1.3 6.2.4 9.4.5 2.3.1 4.6 0 6.9 0 4.8 0 9.5 0 14.3-.1 4.8 0 9.5-.3 14.2-1 3.2-.5 6-1.9 8.7-3.6 2.1-1.3 4-2.8 6-4.3.9-.7 1.6-1.5 1.7-2.7.2-2.2.4-4.3.5-6.5.1-1.3 0-2.6 0-3.9-.1-2.7-.2-5.4-.3-8.2-.1-1.6-.2-3.3-.1-4.9.1-2.1.3-4.2.4-6.2.1-2.4.2-4.9.5-7.3.2-1.8.8-3.6.9-5.5.3-3.8.4-16.5.4-18.6zm-89 91.3c-1.9-.1-2.3-.7-2.1-2.6.1-1.6.1-3.2 0-4.8-.1-3.9-.4-7.9-.5-11.8-.1-2.2 0-4.4 0-6.6 0-1-.3-1.4-1.3-1.4-2.5-.1-5.1-.4-7.6-.5-1.3 0-2.7.1-4.1.2-.9.1-1.6-.3-1.7-1.2-.2-1.5-.5-3-.4-4.4.1-1.3.8-1.9 2.2-2 .9-.1 1.9.1 2.9 0 2 0 4.1-.1 6.1-.2.8 0 1-.4.6-1.2-.7-1.5-1-3.1-.3-4.8.2-.6-.1-.9-.6-.9-2 0-4 0-6 .1-1.2.1-1.8-.3-2.1-1.4-.2-.9-.5-1.8-.7-2.8-.7-2.6 1.2-6.1 2.1-6.4s5.5.2 7.6.2c.8 0 1-.7 1-1.4-.1-1.6-.2-3.2-.3-4.9 0-.4-.3-1-.6-1.2-3.3-1.9-3.4-4.2-2.7-7.5.4-1.7.1-1.5-1.3-1.6-.9 0-1.7.1-2.6-.1-.6-.1-1.3-.4-1.6-.8-1.3-2.5-1.9-5.2-1.2-8.1.1-.6.8-2 2.7-2.1s3.7-.1 3.6-1.4c-.1-2.2-.2-4.4-.3-6.7 0-.6 0-1.3.1-1.9.3-1.4 3.9-.7 4.7-.5.6.1 1-.2 1-.9.1-2.8 1.2-5.1 3.3-7.1.5-.5.5-1.7.4-2.5-.2-1.9-.3-1.9-2.2-1.9-2.1 0-4.1 0-6.2 0-1.4 0-2.2-.5-2.6-1.9-.6-2-.2-3.9.3-5.8.4-1.3 1.5-1.6 2.9-1.3 1.3.2 2.7.2 4 .3 3.7.2 7.4.3 11.1.5 3.3.2 6.6.5 9.9.7 2.3.1 4.5.1 6.8.1.5 0 2.9.1 2.8.9-.3 2-.2 6.3-.2 6.5-.1 1.4 0 1.5 1.4 1.3 1.3-.1 2.5-.3 3.8-.3 1.6 0 1.7.2 1.7 1.8 0 .7 0 1.4.1 2 .2 1.4.7 1.9 2 1.3 3.2-1.3 28.9-.7 32.1-.7 1.3 0 20.2-1 21.2.7.5.8 1.3 1.5 2.1 2.1.5.5.6.9.5 1.7-.3 1.5-.3 3.1-.4 4.7-.2 5.2-.4 10.4-.6 15.7-.1 1.3-.6 2.6-.8 3.8-.3 3.6-.5 7.2-.8 10.9 0 .5-.1 1-.1 1.5 0 1.3-.1 2.4.9 3.6 1.8 2.1 3.5 4.4 4.2 7.1.4 1.6.5 3.3.7 5 .4 2.9-.7 5.5-2.1 8-1 1.7-2.1 3.4-3.5 4.8-.5.5-.5 1.7-.5 2.6-.1 3-.2 6.1-.3 9.1 0 1.4-.1 2.8-.1 4.2-.1 2.4-.2 4.7-.3 7.1 0 .5 0 1 .1 1.5.2 2.1-.5 3.8-3.1 3.8-4 0-8.1 0-12.1.1-4.8.1-9.7.3-14.5.4-.3 0-.5 0-.8 0-1.8-.2-1.9 0-2 1.7-.2 4.2-.6 8.4-.8 12.6-.1 2.9 0 5.9 0 8.9 0 .7.2 1 .9.6.4-.2 9.1-6.4 9.6-6.9.4-.4 1-1 1.3-.9.5.2 1.1.8 1.2 1.3.4 2.2.6 4.4.7 6.6 0 .4-.5 1.1-1 1.2-.7.2-1-.4-1.1-1.1-.1-1-.2-2.1-.3-3.1-.1-1.2-.3-1.3-1.4-.9-1.7.8-7.3 5.3-10.3 7.4-1 .7-2.3-.7-2.3-2.4.1-1.6.2-3.3.3-4.1.3-4.7.6-9.3.9-14 .1-1.9.1-3.8.1-5.7 0-.8-.3-1.3-1.2-1.2-2.4 0-4.8 0-7.2 0-1.4 0-2.7.1-4.1.1-3 0-6.1.1-9.1.1-.7 0-1 .3-1.2 1-.7 2.5-1.6 4.9-2.3 7.4-1 3.3-1.9 6.7-2.9 10.1-.8 2.5-1.7 5-2.3 7.5-.8 2.9-1.3 5.9-1.9 8.9-.1.5-.4.9-.6 1.4-.3.6-.8.6-1.4.3-2.6-1.6-5.2-3.3-7.3-5.6-.5-.5-.7-1.1-.3-1.7s1-.4 1.4 0c1 .8 6.4 4.1 6.7 2 1-5.7 3.3-10.9 4.6-16.5.9-4 2.3-7.9 3.5-11.9.2-.5.4-1 .6-1.5.3-.8.1-1.2-.8-1.2-2 0-4.1 0-6.1 0-.8 0-15.2-.6-21.6-1.1z" fill-rule="evenodd"/><path d="m515.8 437.7c-.8.1-1.4.2-2.1.4-.4.1-.7.3-1.1.4.3.3.5.6.8.8 2.8 1.8 5.6 3.6 8.4 5.2 5.7 3.2 11.4 6.5 17.6 8.8 4.5 1.6 8.8 3.7 13.1 5.6.8.3 1.6.5 2.2 1 3.5 2.6 7.5 4.1 11.6 5.6.3.1.6 0 .9 0-.2-.2-.3-.5-.5-.7-.5-.4-1.1-.7-1.6-1-2.1-1.2-4.2-2.4-6.4-3.6-2.9-1.5-5.8-3.1-8.8-4.5-3.1-1.4-6.3-2.6-9.4-4-1.8-.8-3.5-1.8-5.1-2.7-2.5-1.5-5-3.1-7.5-4.7-.8-.5-1.4-1.3-2.2-1.7-2.4-1.4-4.8-2.6-7.3-3.9-.8-.5-1.8-.7-2.6-1zm49.2 42.7c.1 0 .1 5.7-.2 8.6-.2 1.9-.5 3.9-.8 5.8 0 .2 0 .3.1.5.1-.1.2-.1.4-.2 1.1-.6 1.5-.5 2.2.5.3.5.5 1 .8 1.4.2.3 1.2.1 1.2-.2.5-3.4 1.1-6.8 1.3-10.2.3-5.8.3-11.7.4-17.6 0-1.3-.2-1.4-1.6-1.3-.6 0-1.2.1-1.8.1-1.1-.1-1.5.5-1.6 1.4-.1 1.1-.1 2.3-.1 3.4 0 2.6-.1 5.2-.3 7.8zm-2.3 31.3s-1.2 12.3-1.8 17.9c-.2 2-.5 4.1-.6 6.1-.1 1.3.3 1.5 1.5 1.3.6-.1 1.2-.2 1.8-.2.8 0 1-.5 1.1-1.1.1-.4 0-.8 0-1.2.5-4.9.9-9.8 1.4-14.8.6-5.5 1.4-11.1 2.1-16.6.1-.7-.1-1.6-.5-2.2-.8-1.2-1.8-2.3-2.7-3.4-.2-.3-.6-.4-.9-.6-.1.3-.2.7-.3 1-.2 2.1-.3 4.2-.4 6.2-.3 2.8-.5 5.3-.7 7.6zm35.8 19.3c-.3.3-.7.6-1 .9-1.7 2.6-3.4 5.3-5.2 8-.4.6-.3 1 .2 1.4.7.6 1.5 1.2 2.2 1.7 2.9 2.3 5.8 4.7 8.7 7 1.4 1.2 2.9 2.3 4.3 3.6 1.5 1.3 1.7 1.3 2.6-.4.1-.2.1-.3.2-.5 1.8-2.9 3.6-5.8 5.5-8.5 1.7-2.5 3.6-4.8 5.4-7.1.6-.7.6-1.4-.1-2-1.4-1.2-2.8-2.4-4.2-3.6-2-1.9-3.8-3.8-5.7-5.7-.5-.5-1-.9-1.5-1.3-.8-.6-1.6-1.1-2.4-1.8-1.1-.9-1.3-1-2.2.1-1.8 2-3.4 4.1-5.1 6.2-.4.5 3 2.7 4.4 3.1 1.4.5 1.4 1.9-.4 2s-3.1-1-4.5-2c-.3-.6-.7-.8-1.2-1.1zm-91.7-25.1v6c0 1.1.4 1.8 1.2 2.4 3.9 3.3 8.7 5.2 13.3 7.3 3.1 1.4 6.3 2.8 9.4 4.2 1.8.8 3.5 1.6 5.3 2.4 1.9.8 3.8 1.5 5.7 2.3 1.7.7 3.3 1.3 5 2 2 .8 4 1.8 6 2.6 1.3.5 2.6 1 3.9 1.4.2.1.8-.1.9-.3.4-.9.7-1.9.8-2.8.4-3.1.7-6.1 1-9.2.7-7.5 1.4-15 2.1-22.5.4-3.7.8-7.3 1.2-11 .2-2.3.5-4.5.6-6.8s0-4.5.1-6.8c.1-2.4.2-4.8.3-7.2.1-1.9-.5-3.6-2.5-4.3-1.2-.4-2.4-1-3.5-1.6-2.4-1.3-4.7-2.7-7.1-3.9-3-1.5-6-3.2-9.2-4.3-3.9-1.4-7.8-2.7-11.4-4.7-2.5-1.4-5-2.9-7.5-4.3-3.3-1.9-6.6-3.9-9.9-5.8-1.4-.8-1.7-.6-1.8 1 0 .2.1.5 0 .7 0 1.4 0 2.8-.1 4.2-.2 4.2-.4 8.3-.6 12.5-.1 3.3-.1 6.6-.2 9.9-.1 4.4-1.9 21.3-2 24-.7 4.2-.8 8.3-1 12.6zm-39.5-29.2c-1.4-.6-.8-2.7 1.2-2 2.1.7 4.2 1.5 6.2 2.4 5.5 2.4 11.1 4.5 17.2 4.8 4.1.3 8.1.3 12.2.3 2 0 2.1-.2 2.3-2.2.4-4.7.7-9.4 1-14.1.2-2.9 0-5.8.1-8.7 0-1.5.3-3.1.4-4.6.2-3.5.3-7.1.5-10.6 0-1.4 0-2.9 0-4.3 0-1.1 5.1-1.4 6.8-1.7.8-.2 1.6-.3 2.4-.4s10.3 6.3 13.5 8.3c4.1 2.7 8.2 5.4 12.9 7.2 2.7 1 5.3 2.3 7.9 3.6 4.7 2.2 9.3 4.5 13.9 6.8 1.9 1 3.7 2.1 5.5 3.1 1.1.6 1.4 1.5 1.4 2.7-.1 4.9-.1 9.8-.3 14.7-.1 2.3-.3 4.6-.5 6.9-.4 3.7-.9 7.5-1.3 11.2 0 .4 0 .8.3 1.1 1.1 1.6 2.3 3.3 3.5 4.8 1.8 2.2 3.6 4.3 5.5 6.4 1.4 1.6 2.9 3.1 4.4 4.6 1.2 1.2 2.5 2.5 3.8 3.6 2.2 1.8 4.5 3.6 6.9 5.3.9.7 1.9 1.1 2.9 1.6.2.1.7 0 .9-.2 1.1-1.2 2-2.6 3.1-3.8 1.2-1.4 2.5-2.9 3.8-4.3.7-.7 1.3-.7 2 .1.9 1 2.1 1.8 3.2 2.7 1.4 1.3 2.7 2.7 4.1 4 2.3 2.1 4.6 4.2 6.9 6.3.8.7 1.6 1.5 2.3 2.3 1.2 1.1 0 2.8-.6 3.5-2.5 3.1-5.1 6.1-7.3 9.3-1.9 2.7-3.3 5.7-5 8.6-.2.4-.9 1.9-3.7-.5-1.3-1.1-2.9-2.2-3.6-2.7-2.8-2.2-5.9-4.2-8.5-6.8-1.4-1.3-2.9-2.4-4.4-3.6-.2-.2-.5-.4-.7-.6-1.6-1.6-1.5-2 0-3.7 2-2.4 3.9-4.9 5.8-7.4.4-.5.6-.9-.3-1.2-.6-.3-1.1-.8-1.7-1.3-1.6-1.2-3.3-2.4-4.9-3.7-4.5-3.5-8.3-7.8-12.1-12.1-1.9-2.1-3.7-4.3-5.5-6.5-.1-.1-.2-.3-.4-.4-.3-.2-.7-.4-1-.6-.1.3-.3.7-.3 1-.4 3.6-.9 7.1-1.3 10.7-.6 6-1.1 11.9-1.6 17.9-.1.9-.1 1.7-.1 2.6 0 1.6-.3 1.9-1.9 1.8-.7-.1-5.1.4-6.6.6-.6.1-1.2-.1-1.7-.3-3.8-1.2-7.3-2.8-10.8-4.7-.9-.5-1.8-.7-2.8-1-.2 0-.6.3-.7.5-.1.5 0 1 0 1.5.1 3.1.1 6.1.3 9.2.2 3.7.4 7.3.7 11 .1.8-.1 1.5-.8 1.9-2.1 1.2-3.4 3.1-5 4.7-.3.4-.7.8-1 1.1-.4.4-.9.7-1.4.2s-.5-1.1.1-1.7c1.4-1.5 2.7-3 4.1-4.5 1.3-1.4 1.9-3 1.7-5.1-.3-3.1-.2-6.2-.3-9.4-.1-2.3-.2-4.7-.4-7 0-.8-.1-1.6-.1-2.4s-.2-1.3-1-1.7c-4-1.8-8-3.6-12-5.4-.6-.3-1.2-.7-1.8-1-1.3-.6-1.5-.5-1.7.9-.3 3.4-.6 6.9-.9 10.3v1.5c-.1 0-.3 5.1-.3 7.6 0 .6-.1 1.2.1 1.8.3 1.2-.3 2-1.1 2.7-1.8 1.7-3.6 3.4-5.4 5.1-.5.5-1 .9-1.6.3-.5-.5-.5-1.4.1-1.9 1.1-1.1 2.2-2.1 3.4-3.1 1.6-1.4 2.5-3 2.5-5.2 0-1.8.2-3.5.3-5.3.1-1 0-2 .1-3 .2-2.9.5-5.9.8-8.8.1-.6 0-1.2.1-1.8.2-1.9-.5-3.1-2.4-3.8-2.7-1-5.3-2.3-7.8-3.6-2.2-1.2-4.2-2.6-6.3-4-.7-.5-1-1.1-.9-2 .2-3 .3-6 .4-9 .1-3.1.2-6.2.4-9.2.2-3.3.5-6.5.8-9.8.1-.8-.3-1.1-1-1-4.4.6-8.9-.3-13.3-.3-2.7 0-5.4-.6-8.1-1.2-2-.4-3.9-1.2-5.8-1.9z" fill-rule="evenodd"/><path d="m355.7 169.8c2-.1 4.1-.1 6.1-.1 3.5.1 17.9.5 21.6.4 3.1-.1 6.2-.3 9.2-.4 3.1-.1 6.2-.2 9.2-.3 3.9-.1 7.7-.2 11.6-.3 2.6-.1 5.2-.2 7.7-.3.8 0 1.2-.3 1.1-1.2-.1-1.3-.2-2.5-.3-3.8-.1-2.1-.4-4.2-.4-6.2.1-2.8.5-5.6.7-8.4.2-3.8.3-7.5.6-11.3.4-5.6.9-11.2 1.2-16.8.1-2.2 0-4.3 0-6.5 0-1.2 0-2.3 0-3.5 0-2.5.1-5.1.2-7.6 0-1.8.2-1.9-2.3-1.9-5.3 0-22.2-.6-25.2-.8s-6.1-.4-9.1-.5c-4.6-.2-9.2-.4-13.7-.5-2.6 0-5.3.1-7.9.1-5.4.1-10.8.2-16.2.3-1.5 0-3.1.2-4.6.5-1.1.2.3 10.3.4 13.6.1 4.5.1 9 .2 13.4 0 2.9 0 5.9.1 8.8.1 2.5.3 5.1.5 7.6.2 2.7.4 5.4.6 8.1.2 3.2.5 6.3.7 9.5.1 1.7.3 5.1.4 6.8-.1.9 5.2 1.3 7.6 1.3zm70.6-68.9c-.1 2.3-.3 4.7-.4 7-.1 2.7-.1 5.4-.1 8.2-.1 3.2-.1 6.3-.2 9.5-.1 2.7-.1 5.3-.3 8-.1 1.4-.3 2.7-.4 4.1-.1 1.7 0 3.3-.2 5-.3 3.9-.7 7.9-.9 11.8-.1 3.4-.3 6.8.4 10.1.3 1.4.4 2.9.4 4.3.1 1.4-1 2.2-2.3 2.1-2.4-.1-4.8-.2-7.2-.2-5.2.1-10.3.3-15.5.5-3.1.1-6.2.3-9.2.4-3.9.2-7.9.3-11.8.4-1 0-2.1.1-3.1.1-5.4-.2-10.7-.5-16.1-.6-3.5-.1-7 .2-10.5.3-.9 0-1.8 0-2.7-.3-1.1-.3-.6-10.3-.9-14.3-.3-4.7-.8-9.4-1.2-14.1-.4-4.8-.6-9.6-.5-14.4.1-2.9.1-5.7.1-8.6 0-1.9-.1-3.9-.2-5.8-.2-2.8-.4-5.6-.8-8.4-.2-1.6-.7-3.1-1.1-4.6-.6-2.2.1-2.9 2.3-2.8 1.8.1 3.5-.1 5.3-.1 3.2 0 6.3 0 9.5-.1 3.8-.1 7.5-.3 11.3-.4 1.7 0 3.4.1 5 .1 3.8.1 7.6.2 11.4.4 4.2.2 8.3.5 12.5.6 3 .1 6-.1 9-.1 2 0 4 .3 6 .3 3.5 0 7.1 0 10.6-.1 1.4 0 1.9.4 1.8 1.7z" fill-rule="evenodd"/><path d="m546.8 372.4c-.5 4.7-1 9.5-1.6 14.2-.3 2.2-.8 4.3-1 6.4-.3 2.3-.3 4.7-.5 7.1-.2 3.6-.3 7.1-.5 10.7-.1 1.5-.2 1.5-1.7 1.5-1.7 0-3.3.2-5 .2-4.9 0-9.9-.1-14.8-.2-3-.1-6-.1-9-.2-1.5 0-3-.1-4.5-.1-1.6 0-2 .5-1.8 2.1.2 1.1.1 2.3.2 3.4.1 1.4.3 2.9.4 4.3 0 .4-.2.8-.3 1.2-.4-.1-.9-.1-1.2-.4-2.8-2.6-6.2-4.3-9.6-6.1-2.3-1.3-4.3-2.8-6-4.8-.8-1-3.3-.6-3.5-.6-2.3 0-4.6.1-6.9-.1-2.2-.2-2.6-.9-2.5-3.2.2-5.8.6-11.7.6-17.5 0-5.7.7-11.3 1-17 .1-2 .3-4 .6-6 .1-.6.2-1.3.2-1.9.2-1.3.3-2.6.5-3.9.1-.8 0-1.9.5-2.4.5-.4 1.5-.2 2.4-.2 1.4-.1 3.7-.1 6.4-.1h1.8c5.3.1 11.5.3 14 .7 4.3.7 8.6.9 12.8 1.2 5.2.4 10.5.7 15.7 1.1 4 .3 8 .7 12 1.1 1.4.1 1.8.5 1.7 1.9 0 2.4-.2 5-.4 7.6zm-73-7.3c-4.5-.1-9-.5-13.6-.1-1.8.2-3.6-.1-5.4-.4-1.1-.2-2.3-.4-2.3-2.1 0-2.5-.1-5-.2-7.4-.1-3.3-.3-6.6-.4-9.9 0-.1 0-.2 0-.3 0-2.1 0-2.2 2.1-2 .9.1 10.9.8 14.5.8 1.1 0 2.2.4 3.3.5.7.1.9.4.4 1s-1 1.2-1.3 1.9c-.2.4-.4 1.2-.1 1.4.5.5 1.1.3 1.5-.3.6-.9 1.2-1.9 1.9-2.8.4-.4 1-1 1.5-1 3.7 0 7.4.1 11.1.2.3 0 .5.1.8.1 2.1.3 2.2.4 2.1 2.6v1.2 1.2c-.1 2.2-.3 4.5-.4 6.7-4.4-.2-9.3-.5-9.8-.6-1.2-.3-1.5.4-1.5 1.4-.1 1.1 0 2.2 0 3.3-.2 1.6-.4 3.2-.6 4.8-1.2-.2-2.4-.2-3.6-.2zm-21.5-46.1c-3.8-.4-7.6-1-11.4-1.6-2.6-.4-5.3-.7-7.9-1.2-3.3-.6-6.5-1.5-9.8-2.2-1.7-.4-3.4-.7-5-1.1-1.1-.2-1.4-1-1.4-2 0-5 0-10.1-.1-15.1 0-4.5-.2-9-.2-13.5 0-1.7.2-13.7.3-16.7.1-2.4.3-4.9.4-7.3.2-3.6.4-7.3.5-10.9.1-2.2 0-4.4.1-6.7.1-2.8.2-5.5.3-8.3 0-1 .7-.9 1.4-.8 3.8.6 7.7 1.2 11.5 1.8 4.5.8 9 .8 13.6 1 2.5.1 5 .3 7.5.4 3.6.2 7.2.4 10.8.7 2.8.3 5.5.7 8.3 1.1 1.7.3 3.5.6 5.2.9 2.5.4 4.9.9 7.4 1.3l5.7 1.2c1 .2 2.1.2 3.1.3.7.1 1.3.2 2 .4.2.1.5.4.5.7.1.5 0 1.1 0 1.6-.1 0-.4 8.6-.6 12.9-.2 3.4-.6 6.7-.9 10-.4 3.3-.8 6.6-1.2 9.9-.2 2-.2 4-.4 6-.2 3.5-.5 7-.7 10.4-.1 1.6-.1 3.3-.1 4.9 0 2.9-.6 5.6-1.6 8.4-1.7 4.7-3.2 9.5-4.8 14.3-.7 2.2-.8 2.2-3.1 2-4.5-.5-8.9-1.1-13.4-1.6-5.4-.2-10.7-.6-16-1.2zm43.4-56.4c.2-3.2.4-6.5.6-9.7.2-3.5.3-7.1.6-10.6 0-.3.5-.5.7-.7h.1c3.7-.3 4.2.3 4 4 0 .3-.1.6-.1 1-.2 3.1-.3 6.2-.5 9.4-.2 2.6-.6 5.1-.8 7.7-.3 4.8-.4 9.6-.6 14.4-.1 1.6-.4 3.2-.6 4.9-.3 3.1-.7 6.2-1 9.3-.2 2.6-.2 5.2-.4 7.7-.3 5.2-.8 20.1-1.1 22.5-.2 1.4-2 2.1-3.2 2.4-1.6.4-1.7.4-1.7-1.3.1-4 .3-8.1.4-12.1.1-2.2 0-4.4.3-6.5.3-1.9.9-3.8 1.5-5.6.5-1.4 1.2-2.8 1.6-4.2.9-3 1.8-6 2.6-9 .2-.9.3-1.9-.7-2.6-.7-.4-1.7 0-1.5.7.5 1.8-.4 3.4-.7 5.1-.4 1.9-1.1 3.7-1.6 5.6-.1.2-.2.3-.4.5 0-.2-.1-.4-.1-.5.1-2.3.3-4.6.4-6.9s.1-4.5.3-6.8c.2-2.6.6-5.2.8-7.8.2-1.8.3-3.6.5-5.4.3-2 .5-3.8.6-5.5zm-5.6 50.3c-.1 3.3-.3 6.5-.4 9.8 0 .9-.4 1-1.1.7 0 0-.1 0-.1-.1-2.1-1.1-2.1-1.1-1.4-3.5.7-2.5 1.5-4.9 2.2-7.4.1-.4.4-.7.6-1 .1.4.2.8.3 1.2 0 .1 0 .2-.1.3zm-7.8 13.1c-2.6 5.2-5.2 10.3-7.8 15.4-.3.7-.8.9-1.5.8-2.6-.2-5.2-.4-7.9-.6-1.7-.1-3.3-.2-5-.2-1 0-1.3-.6-1.3-1.5-.1-2.6-.2-5.1-.3-7.7-.1-3.1-.1-6.2-.2-9.3 0-1.5.1-1.5 1.6-1.4 3.6.4 7.4.5 10.9 1.4s7 .8 10.5 1.4c1.5.3 1.7.3 1 1.7zm-98.3-79.3c-.1 4.4-.4 8.8-.6 13.2-.2 4.2-.6 8.5-.7 12.7-.1 3.5-.1 7-.1 10.5v14.8 10.1c0 .5.2 1.3-.7 1.3-.7 0-1.3-.2-1.5-1.2-1.1-3.9-2.3-7.8-3.4-11.7-.4-1.3-.8-2.6-1.2-3.9s-.8-2.6-1.1-3.9c-.3-1.5-.4-3-.6-4.4s-.8-1.7-2.1-1.5c-2.1.4-4.3.7-6.4 1-3.7.7-7.4 1.3-11.1 2.1-1.3.3-4.7 1.2-5.3 1.6-.4.2-1.2.7-.9 2.1.4 2.4 2.2 6.3 3 8 .3.8-.2 1.1-.8 1.4-2.2 1.1-4.4 2.2-6.6 3.4-2.5 1.3-5 2.7-7.5 4-1 .5-1.9 1.1-2.8 1.6-.3.2-.7.3-1 .3-1.4 0-2.9-.1-4.3-.1-.6 0-4.9-.1-6.1-.9-.3-.2-.4-.8-.4-1.2-.1-2.9 0-5.9-.1-8.8 0-1.2-.3-2.4-.5-3.6-.2-2-.4-4-.4-5.9-.1-2.6-.1-5.1-.1-7.7 0-1 .2-2 .4-2.9.2-.7.3-1.2-.4-1.6-1.4-.7-2.7-1.5-4.1-2.1s-2.8-.9-4.3-1.4c-1.6-.5-1.9-1.2-1.9-3 0-3-.1-6.1-.2-9.1-.1-4.8-.5-9.5-.4-14.3.2-4.8.9-9.5 1.3-14.3.1-1 .5-1.5 1.5-1.5 1.3-.1 25.2.4 29.9.4 4 0 21.4.6 26.1.8 1.1.1 14.4.8 15 .8.7 0 .9.4.9 1-.4 4.4-.4 9.2-.5 13.9zm-5.2 69.6c-2 .4-4 .8-5.9 1.4-2.3.7-4.6 1.5-7 2.3-1.6.5-2.1.3-2.8-1.1-.7-1.3-1.2-2.7-1.8-4.1s-1.3-2.8-2-4.2c-.8-1.6-1.8-3.1-2.5-4.8-.8-1.9-1.4-3.9-2.1-5.8-.2-.6 0-1.1.6-1.3.6-.3 1.2-.6 1.9-.8.9-.2 1.3-.9 1.3-1.7 0-.4-.5-1-1-1.3-.7-.4-1.3-.1-1.8.6-.2.2-.3.4-.5.6-1.3 1.1-1.7 1-2.3-.5-.8-1.8-1.5-3.7-2.2-5.5-.3-.8 0-1.3.7-1.4 3.2-.8 6.4-1.6 9.7-2.2 2.7-.5 5.5-.9 8.2-1.3.3 0 .5-.1.6-.1 1.4 0 1.7.3 2.1 1.6.8 2.9 1.7 5.8 2.5 8.8.9 3 2 5.9 2.8 9 .5 1.9.7 3.8 1.1 5.7.3 1.2.8 2.3 1.3 3.4.1.4.3.8.4 1.2.2 1.1 0 1.2-1.3 1.5zm-23.6-6.3c-1.1-.6-4.4-.4-5.1-.5-2.4-.3-4.9-.5-7.3-.7-1.4-.1-2.8-.3-4.2-.4v.1c-.4-.1-.8-.1-1.2-.2.3-.3.5-.6.8-.8 2.9-1.5 5.8-3 8.6-4.5 1.3-.7 2.6-1.5 3.9-2.2 1-.6 1.3-.6 1.7.4 1.2 2.6 2.3 5.2 3.4 7.8.5.7.1 1.3-.6 1zm-29 1.3c-1.3.7-2.7 1.4-4.1 2.1-.6.3-.8.1-.8-.6 0-.5-.1-1.1.1-1.6.1-.4.5-.7.9-.9h3.8c.2 0 .4.3.5.4 0 .3-.2.5-.4.6zm-3.7 34.4c.1.5-.3 1.4-1.2 1.8-1.2.5-3.2.3-3.3-.7-.3-4-1-9.7-1.5-13.7-.5-4.2-1.1-8.3-1.5-12.5-.3-2.9-.4-5.9-.6-8.8h.1c-.2-5-.3-10.1-.6-15.1-.2-2.8-.6-5.5-.8-8.3-.2-2-.4-3.9-.5-5.9 0-.6.6-1.2.7-1.8.1-.9.7-1 1.3-1.2.7-.2 1.5-.4 2.2-.7.3-.1.5-.1.8-.3.2-.2.4-.4.6-.7.4-.4.4-.3.4.4 0 .3-.2.6-.1.9.4 5.9.8 11.8 1.2 17.6.1 1.9-.1 3.9-.1 5.8-.1 3.5-.1 7-.2 10.5 0 .6-.1 1.2-.8 1.6-1 .6-1 1.7.1 2.1 1 .3 1.1.9 1.1 1.7.2 3.2.3 6.3.6 9.5.3 2.8.8 5.5 1.1 8.3.4 3.8.6 6 1 9.5zm-7.2 1.3c-.9-.2-1.8-.4-2.7-.6-4.6-1-9.1-1.9-13.6-3-3.7-.9-7.3-1.9-10.9-2.8-4.9-1.3-9.8-2.6-14.7-3.9-2.4-.7-10.7-2.9-12.4-3.1-3.5-.4-4.2-1-4.6-4.5-.1-.5-.1-.9-.1-1.4 0-3.6 0-7.2 0-10.9-.1-4-.4-8.1-.5-12.1-.1-3.2.1-6.4 0-9.7-.2-5.3-.4-10.6-.7-15.9-.1-2.1 0-4.2-.1-6.3-.2-3.2-.8-11.3-1.1-14.9-.1-.9.4-1.6 1.1-1.3 1.8.8 5.1 2.3 6 2.7 3.7 1.7 7.3 3.5 11 5.3 4.9 2.4 9.8 5 14.7 7.4 2.9 1.4 5.9 2.7 8.9 4 1.4.6 2.8 1.2 4.3 1.7 2.2.7 4.5 1.3 6.8 2 .3.1.7.3 1 .4.7.3 1.3.7 2 .9.9.2 1.3.7 1.4 1.6.2 2.6.4 5.2.6 7.7.4 5.5.8 10.9 1.1 16.4.2 2.9-.1 5.9.1 8.8.2 3 .6 6 .9 8.9.3 3.1.7 6.2 1.1 9.3.3 2.7.4 5.5.7 8.3.1 1.4.5 2.8.7 4.2-.1.7-.3.9-1 .8zm-53.7-94c1.6.5 3.2 1.1 4.9 1.7 3.7 1.3 7.4 2.5 11.1 3.9 2.8 1.1 5.7 2.2 8.4 3.4 3.6 1.7 21.3 10.1 22.7 10.6 2.5 1 5.1 1.8 7.6 2.8.3.1.5.6.7.9-.2.2-.5.4-.7.5-1.7.5-3.5 1-5.2 1.6-.9.3-1.6.2-2.4-.1-1.7-.7-3.4-1.1-5.2-1.6-1.9-.6-3.9-1-5.8-1.7-2.8-1.1-5.6-2.2-8.3-3.5-4.3-2-8.5-4.2-12.8-6.3-5.3-2.6-10.5-5.3-15.9-7.8l-4.9-2.7c.8-.2 4.4-2.2 5.8-1.7zm39.9 7.7c.1 0 .1 0 0 0 .2-3.4.4-6.9.4-10.3 0-5-.2-10-.2-15.1 0-2.3.4-4.6.7-6.9.2-1.2.5-1.4 1.6-.8 1.3.6 2.5 1.4 3.7 2.1.8.4.8 1.1.8 1.9-.3 4.7-.6 9.4-.9 14.1-.1 2-.3 4.1-.4 6.1 0 .7.1 1.3.2 2 .1 3.1.3 6.2.3 9.4 0 1.8-.2 3.7-.5 5.5 0 .2-.7.5-.9.4-1.1-.4-2.1-.8-3.1-1.4-.2-.1-.3-1-.1-1.3.9-1.3 2-2.6 2.9-3.9.4-.5.8-1.2.7-1.8 0-.4-.8-.8-1.3-1-.7-.3-1.4.5-1.8 1.6-.2.7-.5 1.3-.9 1.9-.2.3-.7.5-1 .8-.1-.4-.3-.8-.3-1.3.1-.5.1-1.3.1-2zm-32.2 103.6c2-1.1 4.2-.5 5.4 1.5 0 .1.1.2.2.4-.2.2-.5.5-.7.6-2.6 1.5-5.3 3-7.9 4.5-2.8 1.5-5.6 2.9-8.4 4.4-3.6 1.9-7.1 3.8-10.7 5.7-4.3 2.4-8.6 4.9-12.8 7.3-3.8 2.1-7.6 4.2-11.4 6.3-.3.1-.6.3-.9.2-1.7-.3-3.3-.9-4.8-1.8-.6-.4-.7-.8 0-1.2 1.2-.7 2.4-1.4 3.6-2.1 2.9-1.6 5.7-3.3 8.6-4.9 3.3-1.8 6.6-3.6 9.9-5.3 1.8-.9 3.5-2 5.3-2.7 3.9-1.6 7.5-3.6 11.1-5.7 4.5-2.4 9-4.8 13.5-7.2zm5.4 9.8c-.1 1.4-.2 2.8-.2 4.2-.1 6-.1 12-.4 18-.2 4.2-.7 8.3-1 12.5-.1 2.3 0 4.7 0 7.1 0 1.7-.1 3.3-.2 5-.1 3.8-.3 7.7-.4 11.1 0 2.1.1 3.8 0 5.4-.1 1.2-4.4 2.6-4.4 2.6s-.1-2.3-1-2.4c-1-.1-18.1-1.9-22.3-3.5-1-.4-1.5 0-2.2 1.5s-1.9 4.6-2.7 7.3c-.2.7-.7.9-1.3.6-2.6-1.1-5.3-2.1-7.9-3.3-1.3-.6-2.5-1.4-3.8-2.1-2.4-1.5-4.4-3.4-5.9-5.7-.6-.9-.6-2.3-.6-3.5 0-3.7.3-7.3.3-11 0-3.9-.1-7.8-.1-11.7 0-.7.2-1.3.3-2 .2-1.5.4-3 .5-4.6.1-1.1.8-1.7 1.6-2.4 3.3-2.5 7.1-4 10.7-6 1.8-1 3.5-2.2 5.3-3.3 3.1-1.8 6.3-3.4 9.4-5.2 2.7-1.5 5.3-3.1 8-4.5 4.4-2.4 8.9-4.6 13.4-6.9 1.3-.7 2.6-1.5 3.9-2.2.9-.5 1.1-.4 1.1.7.1 1.5 0 2.9-.1 4.3zm-9.2 67.2c-.7 1.2-4 9.4-5 12-1.1 3.1-2.5 6.2-3.7 9.3-.5 1.3-1.2 2.6-1.7 3.7s-7.3-.9-8.9-1.2-8.2-1.3-9.9-1.8c-.7-.2-.7-.8-.5-1.4 2-6.3 3.9-12.6 5.9-19 .6-1.8 1.1-3.6 1.8-5.3.5-1.4.7-1.4 2.1-1.1 2.2.5 9.8 1.5 11.4 1.6 2.7.2 5.4.1 8 1.4.7.6.9 1.1.5 1.8zm-31.6 16.3c-2.7.6-5.4 1.4-8.1 2.1-1 .3-2.1.4-3.2.6-.7.2-.9-.2-.9-.7 0-.9 0-1.8 0-2.7 0-2.6.1-5.2 0-7.7-.1-3.7-.3-7.4-.5-11.1 0-.2-.1-.5 0-.7 0-.2.2-.5.3-.7.2.1.5.2.7.3 1.8 1.2 3.5 2.4 5.3 3.6 3.1 2.1 6.5 3.5 10 4.8 1.1.4 1.3 1 1.1 2-.2.9-.5 1.7-.8 2.6-.7 2-1.4 4-2 6-.5.8-.9 1.3-1.9 1.6zm-14.3 1.8c0 .7-.4 1-1.1.8-.8-.2-1.6-.4-2.3-.8-.4-.3-.9-1-.9-1.5-.2-2.4-.2-4.8-.2-7.2 0-1.6-.1-4.9-.2-4.9.1-4.8.3-9.6.4-14.4 0-.7 0-1.5 0-2.2 0-.2.2-.4.4-.5.1 0 .3.1.4.3.9 1.5 2 2.8 2.6 4.4.4 1 .4 2.2.4 3.3.2 4.6.4 9.1.5 13.7.2 3 .1 6 0 9zm-3.3-64.1c.2.1 3.3 1.9 3.1 4.8-.3 4.9-.5 19.3-.6 21.6s-.2 4.5-.3 6.8c0 .2-.1.4-.2.6-.1-.1-.2-.3-.3-.4-.8-1.3-1.7-2.7-2.5-4-.2-.3-.2-.7-.3-1 0-.9-.2-11.3-.2-15.6 0-1.8 0-6.9 0-7.7 0-1.4-.1-2.8 0-4.2.1-1.1.4-1.2 1.3-.9zm7.5-14.3c.2-.7.5-1.1 1.3-.9 1.8.4 3.7.6 5.5 1.1.7.2 1.1.1 1.3-.5.1-.5.1-1.2-.2-1.6-.2-.3-.8-.4-1.2-.5-1.5-.2-3-.3-4.6-.4-.8-.1-.9-.5-.7-1.1.7-2.1 1.4-4.1 2-6.2.9-3 1.8-6 2.7-9 .3-.9.5-1.6 1.7-1.4.9.2 1.8.5 2.8.6 2.3.4 4.6.9 7 1.2l9.6 1.5c1.3.2 1.7.7 1.5 2-.2 1.2-.6 5.3-.9 5.9 0 .1-.1.1-.2.2-3.1 1.9-6.4 3.3-9.7 4.8-2.8 1.3-5.5 2.8-8.2 4.3-3.3 1.8-6.5 3.7-9.8 5.5-.3.2-.7.2-1 .3.1-.2.7-4.2 1.1-5.8zm-15.9-35.4c-.3 3.9-.7 7.9-.9 11.8-.1 2.1-.1 4.2-.2 6.3 0 1.2-.1 2.4-.2 3.7 0 .6 0 1-.9.9-.5-.1-1.2.5-1.6 1-.5.6 0 1.2.5 1.5 1.6.8 1.5 2.1 1.4 3.6-.1 2.9-.1 5.8-.2 8.7-.1 3.8-.3 7.5-.4 11.3-.1 1.8 0 3.6 0 5.4-.1 1.9-.2 3.9-.3 5.8-.2 2-2 3.1-3.9 2.6-.7-.2-1-.5-.9-1.4.4-4.2.6-8.3.9-12.5.3-3.6.6-7.1.8-10.7.1-2.1.1-4.2.2-6.3.1-3.1.3-6.3.4-9.4.2-3.5.4-7 .6-10.5.2-3.1.6-6.1.9-9.2.1-1.2.2-2.4.3-3.5.1-1.4 2.2-2.9 3.5-2.5.2.1.3.6.5.9-.2.8-.5 1.7-.5 2.5zm-8.6 50.2c-.2 2.9-.3 5.8-.7 8.7-.3 2.6-.6 2.7-2.8 1.6-3.5-1.8-6.9-3.8-10.4-5.6-2.6-1.3-5.2-2.6-7.8-3.9-2-1-4.1-2-6.1-3-2.9-1.4-5.8-2.7-8.7-4.1-1.5-.7-3-1.6-4.4-2.4-3.5-2-7-4.1-10.5-6.1-.8-.5-1.1-1-1-1.9.2-2.8.2-5.6.5-8.4.4-3.4.9-6.8 1.5-10.2.9-4.8 1.9-9.6 2.8-14.4.7-3.4 1.4-6.8 1.9-10.3.5-3 .8-6 .9-9.1.2-4.2.2-8.4.3-12.6 0-.3.2-.7.3-1 .3.1.7.2 1 .4 3.2 2.1 6.3 4.2 9.5 6.3 3 2.1 6 4.2 9.1 6.2 3.6 2.4 7.2 4.9 10.9 7.1 3.9 2.4 7.9 4.6 11.8 6.8 1.1.6 2.3 1.2 3.5 1.5 1.6.5 1.9 1.5 1.7 3-.4 3.4-.8 6.8-1.1 10.1-.3 3.5-.4 7-.6 10.4-.2 2.7-.4 5.3-.5 8-.1 3 0 6-.1 9-.4 4.7-.7 9.3-1 13.9zm-40.7-85.4c.7.3 1.3.6 1.9.9 2.3 1.4 4.7 2.8 6.9 4.3 3 2.1 5.9 4.4 8.8 6.6 1.7 1.3 3.2 2.8 5 4 1.9 1.3 3.9 2.3 5.8 3.4 2.2 1.3 4.4 2.5 6.6 3.8 1.9 1.1 3.9 2.1 5.9 3.1s4.1 1.9 6.1 2.9c.2.1.3.4.5.6-.2.1-.4.4-.6.4-.8-.1-1.7-.1-2.4-.4-2.1-.9-4.2-1.9-6.3-2.9-.9-.4-1.8-.8-2.7-1.3-4.3-2.6-8.5-5.3-12.8-8-1.6-1-3-2.3-4.7-3-2.7-1.2-4.7-3.5-7.2-5-3.8-2.3-7.5-4.8-11.2-7.2-.1-.1-.2-.1-.3-.2-.4-.4-.7-.8-1.1-1.3.6-.2 1.2-.4 1.8-.7zm389.9 49.9c-1.4 0-2.8 0-4.2 0-2.9-.2-5.9-.5-8.8-.7-2.5-.2-5.1-.2-7.6-.4-4-.2-16.1-.8-18-1.2-.1 0-9.7-1.1-14.3-1.3-1.1-.1-2.7-.1-4.5-.2 0-.3 0-.6 0-.9.2-3.9.5-7.8.7-11.6.1-1-.5-1.6-1.4-1.6-1.9 0-3.9-.1-5.8-.1-2.3 0-4.6.1-6.9.1-1.2 0-1.3-.1-.7-1.2 1-1.8 2.1-3.6 3-5.5 1.4-2.8 3.4-7.2 4.8-10 .4-.9 2.3 0 4 .8.4.2 1.3 1.2 2.3 1.2 2 0 2.7-.5 5.1-1.3 1.1-.3 2.2-1.2 2.5-3.3.1-1 .7-14.3 1-17.8.1-1.4.1-2.9.2-4.3.2-2.7.4-5.4.6-8.2.2-2.6.2-5.2.4-7.9.2-2.8.8-5.7 1-8.5.4-5.5.5-11 .8-16.4.1-1.4.4-2.7.5-4 .2-2.7.4-5.3.5-8 .1-2 .2-4.1.2-6.1 0-2.1-.6-2.5-2.6-2.5-.7 0-1.4.1-2 0-1.1-.1-2.2-.3-3.3-.5-.6-.1-3.3-.5-3.9-.6-2.6-.3-5.1-.7-7.6-1.1-5.3-.8-10.6-1.8-15.9-2.5-3.8-.5-7.6-.7-11.3-1-1.6-.1-3.3-.2-4.9-.3-3.4-.2-6.8-.5-10.2-.7-3.1-.2-6.3-.2-9.4-.6s-6.1-1.1-9.2-1.8c-1.6-.3-3.1-.9-4.7-1.3-2-.6-2.9-.2-2.6 1.9.1 1.4.3 2.8.3 4.2-.2 4.6-.6 9.2-.8 13.9-.3 5.7-.8 21.5-.9 23.6 0 .3-.2.7-.3 1-.3-.2-.7-.3-.9-.6-1.2-1.5-2.4-3-3.5-4.6-1.6-2.3-3.1-4.6-4.6-7-.6-1-1.3-2-1.7-3.1-.7-2-4.1-9.9-3.6-11.3.2-.5.8-1.5.7-2 .6-1.5-1.3-2-1.8-.2-.3 1.2-.8 1.2-1.3.2-.6-1.2-2.5-1.1-1.6.4.1.6.7 1.5 1 2 .6.8.6 1.6.3 2.5-.4 1-.8 2.1-1.2 3.2-1.4 3.7-3.1 7.1-5.3 10.4-1.7 2.6-3.5 5.2-5.3 7.7-.2.2-.4.4-.7.6-.1-.3-.3-.6-.3-.9 0-1.6.1-3.3.2-4.9.3-5.1.7-10.2.9-15.3.2-6.5.1-13 .1-19.5 0-.4-.4-1-.7-1.3-.4-.3-.9-.4-1.4-.5-4.2-.8-8.5-.8-12.7-.8-5.3-.1-10.6-.4-15.9-.6-1.3 0-2.5-.1-3.8-.1-2.6 0-5.2.2-7.9.2-4 0-8-.1-12-.2-4.4-.1-8.8-.2-13.2-.3-2.7-.1-5.4-.6-8-.6-2.4 0-4.2-.9-6.1-2.1-.7-.5-1.9-.5-2.7-.3-.4.1-.7 1.3-.8 2-.2 2.2-.3 4.4-.4 6.6-.1 2.5-.2 4.9-.2 7.3 0 3 .3 6.1.3 9.1-.1 5-.5 9.9-.7 14.9-.1 1.6-.1 1.7-1.6 1-5.6-2.5-11.1-5.1-16.7-7.5-3-1.3-6.1-2.4-9.2-3.4-1.8-.6-3.7-1-5.4-1.7-1.6-.6-3.1-1.5-4.7-2.3-.4-.2-2.2-.4-2.9 0-.5.3-.9.6-1.1.7-.7.4-3.4 1.7-4.9 2.5-.3.2-1 .6-1 3 0 2 .7 5.9.8 7.3.2 3.6.3 7.2.4 10.7.2 4.2.4 8.3.6 12.5 0 .3-.9.6-1.1.4-2.2-3.1-4.5-6.1-6.6-9.3-1.4-2.2-2.6-4.6-3.8-7.1-1.9-4.2-3.7-8.5-5.6-12.7-.1-.2-.2-.3-.3-.5-.3-.9-1.1-1.1-1.8-.8-.8.3-.5 1.1-.2 1.6.5 1 4.9 10.6 6.7 14.4 1.2 2.5 2.5 5.1 3.9 7.5 1.8 3.1 4 5.9 5.8 9 1 1.8 2 3.7 2.4 5.7.5 2.5.5 5.2.6 7.8.2 5.3.4 10.6.6 15.9.1 3.9.1 7.9 0 11.8 0 .3 0 1 .1 1.8.1 1 1.4 2 1.8 2 .6 0 10.3 2 13.2 2.6 1.9.5 3.8 1.1 5.8 1.6 2.2.5 2.3.5 1.3 2.4 0 .1-.1.2-.1.3-1 2-11.1 18.1-12 19.5-1 1.6-2 3.2-3.1 4.7-.1.2-.4.4-.6.5-1.8 1-3.5 2-5.3 3-1.2.6-1.6.3-1.4-1s.4-2.5.6-3.8c.1-.5-.2-2-1.1-2.3-2.9-.8-9.1-1.2-10.4-1.5-4.2-.9-8.3-2-12.4-3-1.2-.3-2.1.3-2.3 1.4-.5 2.3-1.1 4.6-1.7 6.8-.8 2.9-1.9 5.7-2.7 8.6-.8 2.6-.7 2.6-3.3 1.8-1.7-.6-3.5-1-5.2-1.7-2-.9-3.8-2.1-5.8-3-1-.5-1.4-1.1-1.3-2.2.2-1.9.5-3.9.5-5.8.1-3.6 0-7.1 0-10.7 0-2 .1-4 .4-6 .4-2.5 1.1-5 .2-7.6-.2-.6-.4-1.1-1-1.3-1.5-.6-2.9-1.2-4.3-1.9-2.5-1.2-5-2.4-7.4-3.7-1.8-1-3.5-2.1-5.3-3.1-3-1.7-6.1-3.2-9-5.1-3.5-2.3-6.7-4.9-10.1-7.3-3.7-2.6-7.5-5.2-11.2-7.8-.7-.5-1.4-1.2-1.9-1.8-.8-.9-1.8-1.1-2.4-.2-.9 1.4-2.2 2.1-3.6 2.7-.9.4-1.2 1-.9 2 .2.6.3 1.2.3 1.7.1 2.9.3 5.9.2 8.8-.1 3.3-.8 6.7-.9 10-.1 3.5-1.1 6.7-2.7 9.7-.7 1.4-1.8 2.6-2.5 4-2.2 4.1-4.6 8.1-5.8 12.7-.2.8-.6 1.5-.9 2.3-.8 2-1.8 4-2.3 6.1-1.1 4.7-1.9 9.5-2.7 14.3-.4 2.2-.4 4.4-.5 6.6 0 .4.5 1 .9 1.3.2.1 1-.1 1.1-.4.3-.6.8-1.2.3-2-.3-.5-.6-1.2-.5-1.8.3-2.8.7-5.5.9-8.2.3-3.7 1.4-7.3 2.5-10.8 1.3-4 2.9-7.8 4.4-11.7.5-1.3 1.3-2.6 2-3.8.9-1.6 1.8-3.1 2.7-4.7.1-.2.4-.4.7-.6 0 .3.1.6 0 .9-.5 2.6-1.2 5.1-1.7 7.7-.8 4-1.6 7.9-2.2 11.9-.5 3.3-.6 6.7-.9 10-.1 1.3-.1 2.5-1.3 3.4-.8.7-.4 1.9.7 2.4 1.5.6 3 1.2 4.4 2 3.1 1.7 6.1 3.6 9.2 5.3 3.8 2 7.6 4 11.5 5.9.8.4 1.2.9 1.1 1.8-.1.7-.3 1.4-.6 2.1-1 1.8-2.1 3.7-3.3 5.5-2.2 3.4-4.9 6.5-6.6 10.3-.6 1.2-1.1 2.5-1.8 3.6-1.4 2.3-2.9 4.4-4.4 6.7-.5.8-.8 1.7-.1 2.5 1.8 1.9 3.6 3.8 4.9 6.2.2.4 1.1.4 1.7.4.1 0 .4-.9.3-1.3-.4-.8-1-1.6-1.6-2.3-.7-.8-1.6-1.5-2.1-2.4-.4-.6-.5-1.5-.4-2.1.2-.9.7-1.8 1.1-2.6 1.6-3.1 3.3-6.3 5-9.4 1.1-2 2.3-4 3.6-5.9 1.6-2.5 3.3-4.8 4.9-7.3.6-.9 1-1.9 1.4-2.8.3-.6.8-.9 1.4-.5 1.8 1.3 4.2 1.5 5.6 3.8.8 1.3 1.8 2.5 2.3 3.9.9 2.7 1.9 5.5 2.8 8.2 1.1 3.5 2.1 6.9 3 10.4.2.6 0 1.3 0 1.9.1.7.1 1.7.6 2s1.5.1 2.1-.1c1-.4 2-1 3-1.7.5-.4 1-.9 1.3-1.5.2-.4.1-.9.1-1.4-.5 0-1.1-.1-1.5.1-.8.4-1.6.9-2.3 1.4-.7.4-1.1.2-1.3-.5-.1-.3-.2-.6-.3-.9-1.1-3.6-2.2-7.2-3.4-10.7-1-3.1-2-6.2-3-9.3-.1-.3 0-.6 0-.9.3.1.6.1.9.2 2.4 1.3 4.7 2.7 7.2 3.9 2.1 1 4.2 2 5.9 3.6.2.2.5.3.7.3 2.6.2 5.2-.1 7.8-.7 1.3-.3 2.4-1.4 1.7-3-.2-.6-.3-1.2-.3-1.9.1-2.1.2-4.2.3-6.4.1-4 .3-8 .4-12.1.1-1.7.2-3.3.2-5 0-2.2-.1-4.4 0-6.6 0-.9.5-1.1 1.3-.7 1.3.7 2.6 1.3 3.9 2 1.2.6 2.3 1.2 3.6 1.6 1.5.6 3 1 4.5 1.5.7.2 1.1.6.9 1.4-.4 1.8-.8 3.5-1.2 5.3-.1.5-.2 1.7-.8 2.3-2 1.9-6.4 3.3-6.5 3.9-.1 1.4-.3 2.9-.3 4.3v12.2c0 4.6.1 9.2.1 13.7-.1 5.4-.3 10.9-.4 16.3v7.3c.1 4.1.3 8.1.2 12.2 0 1.9.5 2.9 2.3 3.5 1.3.4 6.3 1.4 6.9 1.3 1.1-.2 2.2-.6 3.2-.9 2.5-.7 4.9-1.5 7.4-2.2 1-.3 1.3-.1 1 .9-.2.7-.7 1.2-1 1.9-.2.5-.4 1.2-.3 1.7.2.9 3.1 1.7 3.7 1.9-.2.5-.3 1-.5 1.5-1.4 2.5-2.9 4.9-4.3 7.4-.9 1.5-1.8 2.9-2.7 4.4-.3.6-.8.9-1.4.8-2.5-.5-5.1-.9-7.5-1.7-2.9-1-5.6-2.3-8.4-3.5-1.2-.5-1.8-.1-2.1 1.2-.1.7-.4 1.5-.7 2.2-.4 1-1 2-1.5 2.9-.4.7-.2 1.2.5 1.5s1.2-.1 1.5-.8c.5-1.2 1-2.4 1.5-3.6.3-.7.9-.9 1.6-.6 1.3.5 2.7.9 4 1.3 2.4.8 8.8 3.2 11.3 3.9s8.4-12.1 10.8-15.8c.2-.3.6-.7.9-.7 1.7.1 12.2 2.3 15.8 3.3 1.1.3 4.2-8.7 4.8-10.3 1-2.3 1.9-4.7 2.8-7.1.1-.2.2-.3.3-.4 0 .2.1.3.1.5.2 2.8.3 5.6.5 8.4.1 1.6.4 3.2.4 4.7 0 3.2-.2 6.3-.4 9.5 0 1.1.4 1.7 1.5 1.7 2.3-.1 4.6.1 6.9.8.8.3 1.4-.3 1.1-1.1-.1-.4-.6-.9-1.1-1-1.2-.3-2.4-.5-3.6-.7-2.1-.3-2.5-.8-2.6-2.9-.2-3.9-.3-7.8-.5-11.7-.1-3.3-.3-6.7-.4-10-.1-3.1.2-6 3.7-7.4.2-.1 3.6-1.4 5.1-2.2.8-.5 1.3-1.2 1.2-2.5s-.5-10-.4-13.9c0-4 .2-8.1.2-12.1 0-.3 0-.6.1-.9 0-.2.1-.4.2-.5.1.2.2.3.3.5.2 1.1.2 2.3.4 3.4.6 2.4 1.3 4.7 2.1 7 1 2.8 2.1 5.5 3.4 8.1 1 2.1 2.4 3.9 3.6 5.9.5.8.9 1.6 1.3 2.4.3.6.9.9 1.4.6.3-.2.5-.9.6-1.4 0-.2-.2-.5-.3-.7-1.6-2.4-3.2-4.9-4.7-7.3-.5-.7-1-1.4-1.3-2.2-1.4-4-2.8-8-4.2-12.1-.2-.5-.2-1.1-.2-1.6-.2-1.3-.3-2.7-.6-4-.3-1.8-1.1-3.5-1.1-5.2-.1-4.9.1-9.8.2-14.6.1-2.6.5-5.2.2-7.7-.5-4.7.4-9.2.7-13.8.1-1.5.2-2.9-1.4-3.9-.5-.3-1.6-1.2-2.5-1.8-.5-.3-2.2 0-2.7.2-.7.3-4.1 2-4.7 2.1.2-.6 1.1-2.1 1.5-2.7 1.6-2.6 3.2-5.3 4.9-7.9 2.5-3.9 5-7.8 7.4-11.9.6-.9 1-1.1 1.9-.9 3 .8 5.9 1.7 8.8 2.6.4.1.7.6.9 1 .5 1.1 1 2.4 1.5 3.5.8 1.7 4.4 10.8 5.5 13.7 1.3 3.4 2.6 6.9 3.9 10.3.4 1.1 1.3 1.4 2.3.8.6-.4 1.3-.7 1.9-1.1 1-.8 1.9-1.6 2.8-2.5.5-.4.4-1 0-1.4-.5-.5-1-.2-1.4.2-.7.6-1.4 1.2-2.1 1.7-1.5.8-1.8.7-2.4-.9-.5-1.3-1.1-2.7-1.6-4-1-2.6-3.9-10.6-4.5-12-1-2.5-2-4.9-3.1-7.4-.4-1-.3-1.3.8-1 1.6.3 3.3.8 4.9 1.1 3.5.8 7 1.7 10.6 2.5 1.6.4 6.5 2.3 7.6 2.4 2.3.2 5-1 6.1-1.4.8-.3 1.1-.7 1-1.5-.3-3.3-.6-6.7-1-10-.5-4.1-1-8.3-1.5-12.4-.3-2.5-.3-5.1-.6-7.6-.1-1 .3-1.5 1.1-1.9 2.2-1.1 4.3-2.3 6.5-3.4 1.1-.6 2.2-1.1 3.3-1.6 1.3-.5 2.1 0 2.1 1.4-.1 3.5-1.5 28.9-.9 29.6 1.1 1.4 2.2 2.9 3.4 4.3.6.7 1.2 1.3 1.9 1.9.2.2 1 0 1.2-.3s0-.9-.2-1.3c-.1-.3-.6-.5-.8-.7-2.1-1.7-3.5-3.8-3.4-6.7.1-1.8.2-3.5.3-5.3 0-2.1-.1-4.2-.1-6.2.1-4.9.3-9.9.5-14.8.1-1.6.4-1.9 2-1.8 4 .3 8 .6 12.1 1 2 .2 2.3.5 2.2 2.6-.1 3-.1 6-.1 9v12 .2c0 1.2 0 2.4-.9 3.5-.5.6 0 1.1.5 1.5 2 1.7 3.9 3.4 5.9 5 .3.2.9.4 1 .2.3-.3.5-.8.4-1.2-.2-.6-.6-1.1-1.1-1.5-1-.9-2-1.7-3-2.5-.7-.5-.9-1.1-.9-2 0-3.9-.1-7.7-.1-11.6 0-4.4.1-8.8.2-13.2 0-.4 2.6-1.7 3.1-.6 1.4 3 2.8 6.1 4.1 9.2.4.9 1.1 1.3 2 .9 2.9-1.1 5.8-2.2 8.7-3.2.9-.3 1.8-.5 2.8-.6 2-.3 4-.5 6.1-.8.5-.1 1.3-.2 1.4-.5.3-.7.4-1.5.2-2.2-.2-.9-.8-1.8-1.1-2.7-.1-.3 0-.6 0-.9.3.1.6.1.9.2 1.3.6 1.8.3 2-1.1.1-.7-.1-1.4-.1-2.2-.1-4.5-.2-9-.2-13.5 0-2.8 0-5.6 0-8.4.1-3.7.1-7.3.2-11 0-.5 4.1-6.3 4.6-7.1 1.1-1.8 2.4-3.5 3.5-5.3 1.9-3 5.5-11 5.9-11.7.4.7 3.4 8.6 5.4 11.4 2.8 4 9.8 13.2 10.1 14.3.4 1.8.2 5.8.2 9.3.1 2.9.1 11.4.1 12.7.1 2.4.3 10.7.3 12.3 0 2.3.9 3.1 2.2 3.4 1.9.4 4.5.6 5.5.8 3.9.8 7.7 1.7 11.6 2.4 1.1.2 1.5.7 1.4 1.7-.1 2.1-.2 4.3-.4 6.4-.2 3.1-.5 6.1-.7 9.2-.1 3.2 0 6.3-.1 9.5 0 2-.9 3.6-3 4.2-.7.2-1.4.4-1.9.8-.4.3-.8.9-.7 1.4.1.8.8.6 1.3.4.3-.1.7-.3 1-.4 1.1-.6 2.3-1.2 3.4-1.7 1.6-.7 2.2-1.7 2-3.4-.1-.9-.2-1.7-.2-2.6.1-4.5.1-9.1.3-13.6.1-3.3.5-6.5.8-9.8.1-1.5.1-1.5 1.6-1.3 3.4.5 6.7 1.1 10.1 1.5 2.1.3 4.1.3 6.2.4.8 0 1.1.4 1.1 1.2.1 2.3.2 4.6.3 6.9v6.4c0 1.3.3 2.5.3 3.8 0 1.5-.5 1.8-2 1.4-.9-.2-1.7-.5-2.5-.9-1.7-.8-2.4-.5-2.3 1.4.1 2.5.4 5 .5 7.5.1 2.9.1 5.9 0 8.8 0 1.4-.1 2.7-.4 4.1-.4 1.9-.5 2 1.2 3.2.2.1.4.3.4.5.3.9 1 1 1.7 1 2.3 0 4.6 0 6.9.1 3.2 0 6.4.1 9.5.2 2.4.1 4.7.2 7.1.3-.4 4.4-.8 8.8-1.1 13.2-.4 6.4-.7 12.8-1 19.2-.2 4-.2 8-.3 12 0 1 .5 1.5 1.5 1.5 2.7.1 5.4.3 8.2.2 2.2-.1 3.9.7 5.6 1.9 3 2 6.1 3.7 9 5.7 2.3 1.5 4.8 2.7 6.6 5 .4.5 1.4.6 2.1.5.5-.1 1.2-.8 1.2-1.2.1-1.2-.1-2.5-.2-3.8 0-.7-.1-1.4-.1-2.2 0-1.2.1-2.3 0-3.5 0-1.3 0-1.4 1.3-1.4 2.7.1 5.3.2 8 .3 1.7 0 3.4 0 5.2.1 4.8.1 9.7.3 14.5.4 2.1.1 4.2.2 6.3.4 1.2.1 1.6-.1 1.7-1.3.1-2.9.2-5.7.3-8.6 0-1.5 0-3.1.1-4.6.3-4.2.7-8.3 1.1-12.5.4-4.4.9-8.8 1.4-13.2.4-4.3.9-8.6 1.3-13 .1-1.5-.5-2.2-1.5-2.2z"/><path d="m447.6 189.9c.2-1.8.2-1.8.2-2.7-.1-1.5-.7-2.1-2.3-2-1.2 0-2.4.2-3.5.1-1.3 0-1.5.1-1.4 1.4 0 .3.1.5.1.8.5 3.4 0 3.4 3 3.4s3.7.8 3.9-1zm2.2-5c-.1 1.7-.3 3.4-.4 5.2 0 .8.1 1.6 0 2.4 0 .4-2.9.7-3.5.7-2.1 0-4.1.1-6.2-.5-1.2-.4-1.6-9.5-.5-9.6s2.2 0 3.3.1c1.8.2 3.3-.4 5.4-.3 1.2-.5 2 .4 1.9 2z" fill-rule="evenodd"/><path d="m322.4 190.9c0-.2 0-.5 0-.7-.1-1.4-.1-1.4-1.5-1.5-.6 0-1.3 0-1.9-.1-2.6-.1-2.6-.1-2.2 2.5.1 1 .5 1.6 1.6 1.5.7 0 1.4.1 2.1.1 2 .2 2.1.1 1.9-1.8zm-6.2 3.9c-.8 0-1.2-.4-1.2-1.3-.1-1.9-.4-3.9-.5-5.8 0-.5.1-1.2.4-1.6.1-.2 6.4-.3 8.2 0 1.9.3 1.5 1.1 1.4 2.4-.1 1 .1 4.3.4 4.9.5 1 .3 1.5-.8 1.7-.4.1-.8 0-1.2 0-.4-.1-4.8-.3-6.7-.3z" fill-rule="evenodd"/><path d="m294.2 208.8v.5c0 1.7.1 1.7 1.8 2 .6.1 1.3-.1 2-.1 2.9 0 2.2-.7 2.2-2.9 0-.1 0-.3-.1-.4-.1-.7-.5-1-1.2-1.1-1.3 0-2.7 0-4 0-.6 0-.9.3-.9.9.1.5.2.8.2 1.1zm8.2 2.1c.3 1.9-.3 2.5-2.1 2.2-.9-.1-1.9-.1-2.8 0-1.2.2-4.8 0-4.9-1-.1-1.6-.2-3.2-.4-4.7 0-.3-.1-.5-.2-.8 0-.4.9-2.1 1.8-1.9 1.1.2 2.2.4 3.3.5s4.6-.4 4.8.3c.1.4.2 4.1.5 5.4z" fill-rule="evenodd"/><path d="m449.1 216.1v1.5c0 .9.5 1.5 1.3 1.7 1.1.2 2.2.3 3.2.4.7.1 1.2-.2 1.3-.9.1-1.1.1-2.3.2-3.4 0-.8-.5-1.2-1.3-1.2s-1.6.1-2.3-.1c-2.4-.6-2.4-.6-2.4 2zm-1.5.3c-.1-1.1-.2-2.2-.3-3.2-.1-1.6.4-1.5 2-1.6 2.8-.2 4.1 1 6.3.4.8-.2 1.5.5 1.5 1.5-.1 1.6-.2 3.2-.2 4.8 0 .5.7 2.9-.2 3-1.3.1-2.6 0-3.9 0-.2 0-.4 0-.5 0-4.6 0-4.9-1.1-4.7-4.9z" fill-rule="evenodd"/><path d="m382.9 186.6c-.4.2-1.5-.4-1.6.7-.1.8.1 1.7.3 2.6.1.3.5.7.8.7 1.1.2 2.2.2 3.2.3.6 0 1.1-.1 1.1-.8 0-.8 0-1.6-.3-2.4-.1-.4-.6-.8-1-.9-.7-.2-1.5-.1-2.5-.2zm5.4.2c.2 1.6.4 3.2.6 4.8.1.9-3.8 1.1-4.7 1.1-1.1 0-4.6.2-4.6-1.1 0-1.8-.2-3.7-.5-5.5-.3-1.7.1-2.2 1.7-1.9 2.1.3 4.2.5 6.3.7 1.1.1 1.3.4 1.2 1.9z" fill-rule="evenodd"/><path d="m278.2 233.6c-.7.1-1.5.2-2.3.4-.2 0-.4.4-.4.6-.1 2.5.5 3.2 3 3.2h.4c2 .1 2 .1 2-2-.1-1.9-.1-2-2.1-2.1-.2 0-.4-.1-.6-.1zm1-1.8c.7 0 1.3 0 2-.1 1.3-.1 1.8.5 1.5 1.8-.2.9-.2 1.9-.2 2.8 0 1.1.1 2.2 0 3.2-.1.9-1.9.4-2.3.4-1.7-.2-3.3-.4-5-.5-.9-.1-1.2-.5-1.2-1.3 0-1.3-.5-4-.7-5.6 0-.3.4-1.1 1.4-1.3 1.4 0 3.4.6 4.5.6z" fill-rule="evenodd"/><path d="m376.7 209.7c-2.7.3-2.8.4-2.6 3.1v.4c.1.3.3.7.5.7 1.2.2 2.3.2 3.5.3.1 0 .4-.2.4-.3.1-1.1.3-2.2.1-3.3-.1-.5-1.3-.6-1.9-.9zm-4.3 3.3c-.1-.9-.2-1.9-.3-2.8-.2-1.8.2-2.3 2-2.2s3.7 0 5.5.1c1.4.1 1.6.7 1.3 2-.2 1.1-.3 2.3-.2 3.5.1 1.9-.2 2.5-2 2.6s-3.6-.2-5.4-.3c-.6-.1-1-.5-.9-1.1-.1-.6-.1-1.2 0-1.8-.1 0-.1 0 0 0z" fill-rule="evenodd"/><path d="m127.6 208.6c.1-.2.2-.3.3-.4.1.2.2.3.2.5 0 .1-.2.2-.3.3 0-.1-.1-.3-.2-.4z" fill-rule="evenodd"/><path d="m466 278.3c-.2-.2-.3-.6-.6-.7-.2-.1-.6 0-.8.1-1.8 1.4-3.5 2.9-5.3 4.4-.3.2-.4.6-.5 1 .4 0 .8.2 1.2.1 2.3-.9 4-2.7 5.7-4.4 0-.1.1-.3.3-.5zm3.2-.8c-.4.7-.7 1.3-1.1 1.7-2.5 2-7.8 6.5-8.1 6.6-.7.2-1.4.5-2.1.4-.3 0-.6-.9-.8-1.3s-.5-.8-.7-1.2c-.3-.5-.8-1.1-.7-1.6.1-.4.9-.7 1.4-1 .5-.2 4.5-2.8 5.8-4.1.5-.5.7-1.4.9-2.2.3-1 .8-1.2 1.5-.5.7.9 3.5 2.7 3.9 3.2z" fill-rule="evenodd"/><path d="m434.1 258.2c-.9-.2-1.6-1-1.4-1.7.1-.4.7-.9 1.1-1.1.5-.2 1.4.8 1.3 1.4-.1.5-.1 1.6-1 1.4z" fill-rule="evenodd"/><path d="m463.8 262.2c0 .7-.3 1.3-1.1 1.3-.7 0-1.1-.4-1.1-1.1.1-.7.2-1.4 1.1-1.5.9 0 1 .7 1.1 1.3z" fill-rule="evenodd"/><path d="m340.6 266c-.5-1-.5-1-1.3-.8s-.1 3-.1 3c0 1.3.7 1.9 1.9 1.8.7-.1 2-.1 2-.1 3.8.1 7.6.2 11.4.4 2.1.1 4.2.4 6.3.7.8.1 1.6.2 1.9-.5.3-.6.2-1.3.1-2 0-.3-.2-.6-.4-.8-.3-.3-.7-.8-1.1-.9-.3 0-.7.6-.9 1-.3.7-.6 1-1.4.9-1.2-.2-2.3-.3-3.5-.3-3.3-.1-6.7-.1-10-.3l-4.5-.6s0-.8-.4-1.5z" fill-rule="evenodd"/><path d="m361.8 252.9c.9 0 1.2.6 1.2 1.3s-.4 1.3-1.2 1.3c-.7 0-1.3-.4-1.3-1.2s.5-1.4 1.3-1.4z" fill-rule="evenodd"/><path d="m340.7 254.3c-.9-.2-.7-.5-.9-1.4-.1-.9.5-1.5 1.1-1.3.6.1 1.3-.1 1.2 1.3 0 1.4-.5 1.6-1.4 1.4z" fill-rule="evenodd"/><path d="m259.9 409.6c0-.3 1.1-.8 1.3-.5 1.4 1.6.6 4.4-1.3 5.1-2.7.9-5.5 1.9-8.2 2.7-1.4.4-8.7 2.2-10.9 3-1.5.6-2.1.4-2.5-1.1-.2-.8-.5-1.6-.7-2.4-.1-.3 1-1 1.3-.8.2.1.4.4.5.6.4 1.3 1.1 1.5 2.4 1.2 1.9-.5 3.9-1 5.8-1.3 3.5-.6 6.8-1.8 10.2-2.9.7-.2 1.3-.6 1.9-1 .3-.3.3-2.2.2-2.6z" fill-rule="evenodd"/><path d="m259.3 394c.1 1.2-1 1.2-1.5 1.3-.6.2-1.1-.3-1.1-1s.5-1.5 1.3-1.6 1.2.1 1.3 1.3z" fill-rule="evenodd"/><path d="m238.1 400.9c.1 1.2-.9 1.4-1.2 1.4-.7.1-1.1-.4-1.1-1.1 0-.6 0-1.1 1.1-1.3s1.1-.2 1.2 1z" fill-rule="evenodd"/><path d="m419.4 452.2c0-.7.2-2.1.9-2.1.8 0 .5.5.8 1.4.1.4 1.4.7 1.8.8 3.3 1 6.6 2 9.9 2.8 1.9.5 4.1 1.3 5.1.1s1.4-.7 1.9-.6c.7.2 1.1.6.7 1.4-.4.6-.7 1.3-1.2 1.8-.4.3-1.1.6-1.5.5-2.5-.6-5-1.4-7.6-2.1-3.3-.9-6.6-1.7-9.9-2.5-1-.1-.9-.6-.9-1.5z" fill-rule="evenodd"/><path d="m423.1 433.2c-1 0-1.4-.5-1.4-1.2s.3-1.2 1.1-1.3c.6-.1 1.4.7 1.5 1.3.1.9-.6 1.1-1.2 1.2z" fill-rule="evenodd"/><path d="m443.2 434.1c1.1.1 1.3.7 1.2 1.5 0 .9-.3 1.3-1.5 1.2s-1-.8-1-1.2c0-.5.2-1.6 1.3-1.5z" fill-rule="evenodd"/><path d="m533.3 487.5c2.3-1.2 3.3-1.6 5.2-2.6.3-.2 1.8-.7 1.5-1.5s-.9-.3-1.2-.1c-1.8.8-3.6 1.6-5.4 2.5-.2.1-.4.5-.4.7 0 .4.2.7.3 1zm-3-1.3c-.4-1.7-.4-1.7.6-2 2-.6 4-1.2 5.9-1.8 1.1-.3 2.2-.7 3.3-1.1h.1c.8-.1 2.2 2.2 1.9 3-.1.4-4.9 3.1-7.4 4.2-.8.3-1.4.9-2.2 1.3-.9.4-1.8-1.9-2.2-3.6z" fill-rule="evenodd"/><path d="m538.5 471.5c0-.7.3-1.3 1-1.2.5.1 1.1.6 1.3 1.1s-.6 1.4-1.3 1.4c-.8 0-.9-.6-1-1.3z" fill-rule="evenodd"/><path d="m522.8 463.9c1.6.1 1.3 2.6.2 2.8-1.2.2-1.8-3-.2-2.8z" fill-rule="evenodd"/><path d="m388.2 133.6c-.4-1-.7-1.8-1.1-2.6 0-.1-.5 0-.5 0-.1.9-.2 1.9-.2 2.8 0 .3.5.7.8 1 .4-.4.7-.8 1-1.2zm-6.7.5c-.8-.8-1.4-1.4-2.1-2 0 0-.9.8-.9.8.6.8.6 1.4 1.2 2.2.3-.3 1.2-.4 1.8-1zm2.8 19.3c.9 0 1.8 0 2.7-.1.3-.1.5-.5.7-.8-.3-.1-.6-.4-.8-.4-1.6 0-3.1.1-4.7.3-.2 0-.5.3-.7.5.2.2.4.5.6.5.8 0 1.5-.1 2.2 0zm.4-3.5c.8-.1 1.7-.2 2.5-.4.1 0 .2-.6.1-.6-1.7-1.2-3.4-1-5.2-.4-.2.1-.4.4-.6.6.3.2.5.5.8.5.7.2 1.5.2 2.4.3zm-2.7 5.6s-.3.2-.4.4c-.1.3 0 .8.2.8 1.6.4 3.2.8 4.8.9 1 .1.7-1 .9-1.6 0-.1-.6-.5-1-.5-1.4 0-2.8 0-4.5 0zm3.7-12.5c-.2-1.5-.4-3.2-.5-5-.1-.7-.3-1.1-1.1-1.1s-.9.5-.9 1.1c.1 1.8.3 3.6.4 5.4.1.6.1 1.2.3 1.7.1.3.6.7.8.6.3-.1.8-.4.9-.8.2-.4.1-1 .1-1.9zm-11.9-5.8s.4 3.9.5 5.8c.1.9.5 1.3 1.4 1.3 1.2-.1 2.3-.2 3.5-.3 1.1-.1 1.8.2 2.2 1.3.1.3.2.5.4.8.1-.3.2-.6.2-1 0-.2-.1-.4-.1-.7-.3-1.9-.6-3.9-.7-5.8-.1-1.7-.4-2-2.1-1.5-1.4.4-2.1 0-2.1-1.5 0-1.1-.7-4.5-.5-5 .3-.6 4.6-1.3 5.1-.7.5.5.8 1.2 1 1.9.2.6.1 1.3.2 2 .1.8.6.9 1.3.8s.9-.6.7-1.2c-.3-.9-1.2-4.7-.1-4.5 1.2.2 2.4.2 3.1.1 1.1-.1 1.7.1 1.8 1.3.2 1.7.2 3.5.2 5.3 0 .9-.5 1.6-1.6 1.6-.3 0-.9.5-.9.7 0 1.8.1 3.5.3 5.3 0 .2.2.6.4.7 1.1.2 2.1.4 3.2.3 1.4-.1 1.9-1 1.8-2.2-.3-3.4-.5-6.7-.8-10.1-.1-1.2-.1-2.4-.2-3.7 0-.4-.4-.9-.7-1-.7-.2-1.4-.1-2.1-.1-.5 0-12.4.6-14.2.7-.9 0-1.1.5-1.1 1.3-.1 2.7-.1 5.4-.1 8.1zm5.6 14.9c0-1.3 0-2.5 0-3.8 0-1.6-.8-2.3-2.4-2.3-.9 0-1.9.1-2.8.3-1.3.2-2.3-.5-2.2-3.1.2-2.6-.3-14.8-.4-15.8-.1-.6 0-1.3.2-1.9.2-.7-.5-.4 1.4-.7s17.1-1 18.8-.9 1.9-.1 2.1 1c.2 1.3.2 2.6.3 3.9.2 4.3.4 8.6.7 12.9 0 .8.1 1.5.2 2.3.2.9-.3 2.1-2.4 2.3s-3-.4-3.1 2.1c-.1 3.1 1 9.1 1 9.1s.1 1.7-1.4 1.8c-1.4.1-7.8.6-9.3-.4-.6-.3-.7-5.6-.7-6.8z" fill-rule="evenodd"/><path d="m411.3 121c-.2.2-.6.6-1 .7-1.7.6-3.4 1.1-5.2 1.6-.4.1-1.2 0-1.3-.2-.1-.5 0-1.1.2-1.5.2-.3.7-.6 1.1-.7 1.5-.5 3-.9 4.6-1.3 1-.2 1.6.3 1.6 1.4z" fill-rule="evenodd"/><path d="m384 112v5.3c0 .3 0 .7-.2.9-.2.3-.6.6-.9.8-.2-.3-.6-.7-.7-1-.2-2-.4-3.9-.5-5.9 0-.7 0-1.5 1-1.6.7-.1 1.3.6 1.3 1.5z" fill-rule="evenodd"/><path d="m367.5 124.8c-.2.3-.4.6-.7.7-.2.1-.6 0-.8-.1-.3-.2-.5-.6-.7-.8-.9-.8-1.8-1.6-2.6-2.5-.3-.3-.7-.5-.8-.9-.1-.3-.1-.8.1-1.1.1-.2.6-.3.9-.2.4.1.8.3 1 .6 1.1 1.1 2.1 2.2 3.2 3.3.1.3.2.6.4 1z" fill-rule="evenodd"/><path d="m516.8 401.8h3c.9 0 1.3-.5 1.3-1.4.7-6.4 1.4-12.9 2.1-19.3.1-1.4.2-2.7.3-4.1 0-1-.9-1.6-2.2-1.8-1.1-.1-1.5.5-1.5 1.4-.1 1.9-.2 3.9-.2 5.8-.2 4-.4 8-.5 11.9 0 .8 0 3.9-.8 4.4s-3.9.9-4.8.8c-1.7-.2-3.4-.2-5.1-.1-.3 0-.7.6-.9.9 0 .1.4.6.6.6 2.9.6 8.7 1 8.7.9zm6.8 3.4c0-.1 0-.1 0 0 1-.1 2.1-.1 3.1-.1 1.7 0 1.7 0 1.9-1.8.3-2.6.7-5.2 1-7.8.4-2.5.9-5 1.1-7.5.2-2.2.3-4.4.3-6.6 0-.3-.5-.7-.8-.8-1.2-.1-2.3-.2-3.5-.2-1.1 0-1.7.5-1.8 1.6-.2 1.3-.2 2.7-.3 4.1-.2 3.6-.5 7.2-.7 10.9-.1 1.6-.2 3.2 0 4.8.1.8.3 1.5-.3 2-.6.6-6.8.1-9 .3-.1 0-.3.2-.4.3.1.1.2.3.3.4.2.1.4.1.7.1 2.8 0 5.6.1 8.4.3zm-5.7-32.2c0-1-.5-1.5-1.4-1.5-2.8-.1-5.6-.1-8.4-.1-1.4 0-2.7-.1-4.1-.2-1.7-.2-3.4-.5-5.1-.6-.6 0-1.4-.2-1.5 1-.3 3.8-.8 7.7-1.2 11.5-.4 3.6-.7 7.2-1 10.8-.2 2 .2 2.5 2.2 2.8 2.5.4 5 .8 7.5 1 3.3.2 6.7.2 10 .4 1.5.1 1.6 0 1.7-1.5.1-1.9.2-3.8.3-5.7.4-5.5 1-17.4 1-17.9zm10.5 5.7c1.3-.2 2.6-.3 3.9-.6 1.5-.4 2.5.3 2.2 1.9-.8 5.1-1.6 10.2-2.5 15.3-.4 2.5-.9 9.5-1.3 10.7-.3 1.2-11.5 1-13.4.9-1.1-.1-2.3-.1-3.4-.1-1.8 0-2.5-.5-2.7-2.3-.1-.7-.3-1.1-1.2-1.2-.7-.1-3 0-4.6-.3-.9-.1-1.3-1.5-1.3-1.7.4-1.9-.1-1.8-2.5-2.1-2.5-.3-5-.5-7.6-.8-1-.1-1.7-.8-1.6-1.6.3-2.9.5-5.9.8-8.8.5-5.2 1.2-10.5 1.7-15.7.1-.9.1-1.9.1-2.8.1-1.7.6-2.1 2.2-1.6 1.4.4 12.3 1.4 16.3 1.5 1.5 0 3-.1 4.6-.3 1.4-.1 2.4.8 2.3 2.2s-.1 1.5 1.2 1.7c.7.1 1.4.1 2 .1 1.5 0 2.3 1 2 2.5-.1.3-.1.6-.2.9-.1 1.4.3 1.9 1.7 2 .7.1 1 .1 1.3.2 0-.1 0 0 0 0z" fill-rule="evenodd"/><path d="m513.3 379.6c-.2.3-.5.9-1 1.2-.3.2-.9-.2-1.4-.4s-1.1-.5-1.6-.5c-2.6-.4-5.2-.7-7.8-1.1-.4-.1-1.1-.2-1.2-.5-.2-.6-.4-1.3-.2-1.8.2-.6.8-.4 1.4-.2 1.5.5 3 .9 4.6 1.3.8.2 1.7.3 2.5.3.9 0 1.8-.1 2.6-.2.9-.2 2.1.6 2.1 1.9z" fill-rule="evenodd"/><path d="m501.1 382.6c-.1-.6.2-1.2.3-1.8 0-.1.5 0 .7 0 3.1.5 6.1 1 9.2 1.4.8.1 1.6.1 1.7 1.1.1.9-.6 1.5-1.7 1.5-.8 0-1.5-.2-2.3-.3-1.9-.4-3.7-.8-5.6-1.1-.1 0-.2 0-.3-.1" fill-rule="evenodd"/><path d="m502.3 385.7c.3.1.5.2.6.2 2.6 1.5 5.5 1.6 8.4 1.5.5 0 1.3.3 1.5.7.2.3-.3 1-.6 1.5-.1.2-.6.3-.9.2-2.1-.3-4.2-.5-6.2-.9-1.2-.2-2.3-.5-3.4-1-.4-.1-.8-1-.7-1.3.3-.3.9-.6 1.3-.9z" fill-rule="evenodd"/></g></svg>